<mxfile host="app.diagrams.net" modified="2021-10-20T06:42:54.634Z" agent="5.0 (Macintosh; Intel Mac OS X 10_15_7) AppleWebKit/537.36 (KHTML, like Gecko) Chrome/94.0.4606.71 Safari/537.36" etag="isAvq4rTK-n9bZ8ka-Al" version="15.5.6" type="github">
  <diagram id="C5RBs43oDa-KdzZeNtuy" name="Page-1">
    <mxGraphModel dx="2318" dy="600" grid="1" gridSize="10" guides="1" tooltips="1" connect="1" arrows="1" fold="1" page="1" pageScale="1" pageWidth="827" pageHeight="1169" math="0" shadow="0">
      <root>
        <mxCell id="WIyWlLk6GJQsqaUBKTNV-0" />
        <mxCell id="WIyWlLk6GJQsqaUBKTNV-1" parent="WIyWlLk6GJQsqaUBKTNV-0" />
        <mxCell id="nb_gaPslLwNlG_SoKyud-15" style="edgeStyle=orthogonalEdgeStyle;rounded=0;orthogonalLoop=1;jettySize=auto;html=1;entryX=0;entryY=0.5;entryDx=0;entryDy=0;strokeColor=#0313FF;exitX=1;exitY=0.5;exitDx=0;exitDy=0;" edge="1" parent="WIyWlLk6GJQsqaUBKTNV-1" source="nb_gaPslLwNlG_SoKyud-102" target="nb_gaPslLwNlG_SoKyud-11">
          <mxGeometry relative="1" as="geometry">
            <mxPoint x="494" y="140" as="sourcePoint" />
          </mxGeometry>
        </mxCell>
        <mxCell id="nb_gaPslLwNlG_SoKyud-16" style="edgeStyle=orthogonalEdgeStyle;rounded=0;orthogonalLoop=1;jettySize=auto;html=1;entryX=0;entryY=0.5;entryDx=0;entryDy=0;strokeColor=#FF3333;startArrow=none;" edge="1" parent="WIyWlLk6GJQsqaUBKTNV-1" source="nb_gaPslLwNlG_SoKyud-96" target="nb_gaPslLwNlG_SoKyud-12">
          <mxGeometry relative="1" as="geometry">
            <mxPoint x="494" y="410" as="sourcePoint" />
          </mxGeometry>
        </mxCell>
        <mxCell id="nb_gaPslLwNlG_SoKyud-4" value="mid=[“2159400000000010”]&#xa; &amp;&amp; tntInstId=“ALIPW3BR”" style="text;whiteSpace=wrap;html=1;" vertex="1" parent="WIyWlLk6GJQsqaUBKTNV-1">
          <mxGeometry x="60" y="60" width="170" height="40" as="geometry" />
        </mxCell>
        <mxCell id="nb_gaPslLwNlG_SoKyud-6" value="业务链路" style="text;whiteSpace=wrap;html=1;" vertex="1" parent="WIyWlLk6GJQsqaUBKTNV-1">
          <mxGeometry x="316" y="65" width="56" height="30" as="geometry" />
        </mxCell>
        <mxCell id="nb_gaPslLwNlG_SoKyud-7" value="function=[“alipay.ams.payments.pay”]&#xa; &amp;&amp;&#xa; productCode=“AGREEMENT_PAYMENT”" style="text;whiteSpace=wrap;html=1;" vertex="1" parent="WIyWlLk6GJQsqaUBKTNV-1">
          <mxGeometry x="10" y="350" width="250" height="60" as="geometry" />
        </mxCell>
        <mxCell id="nb_gaPslLwNlG_SoKyud-10" value="原子业务" style="text;whiteSpace=wrap;html=1;" vertex="1" parent="WIyWlLk6GJQsqaUBKTNV-1">
          <mxGeometry x="680" y="60" width="56" height="30" as="geometry" />
        </mxCell>
        <mxCell id="nb_gaPslLwNlG_SoKyud-14" style="edgeStyle=orthogonalEdgeStyle;rounded=0;orthogonalLoop=1;jettySize=auto;html=1;strokeColor=#0313FF;" edge="1" parent="WIyWlLk6GJQsqaUBKTNV-1" source="nb_gaPslLwNlG_SoKyud-11" target="nb_gaPslLwNlG_SoKyud-12">
          <mxGeometry relative="1" as="geometry" />
        </mxCell>
        <mxCell id="nb_gaPslLwNlG_SoKyud-21" style="edgeStyle=orthogonalEdgeStyle;rounded=0;orthogonalLoop=1;jettySize=auto;html=1;fontSize=10;fontColor=#000000;strokeColor=#0313FF;entryX=0;entryY=0.5;entryDx=0;entryDy=0;entryPerimeter=0;" edge="1" parent="WIyWlLk6GJQsqaUBKTNV-1" source="nb_gaPslLwNlG_SoKyud-11" target="nb_gaPslLwNlG_SoKyud-89">
          <mxGeometry relative="1" as="geometry">
            <mxPoint x="1110" y="140" as="targetPoint" />
          </mxGeometry>
        </mxCell>
        <mxCell id="nb_gaPslLwNlG_SoKyud-11" value="&lt;b&gt;名称:&lt;/b&gt; iecpprod_createAndPay&lt;br&gt;&lt;b&gt;策略要素：&lt;/b&gt;acquirePayOrder.payStatus&lt;br&gt;&lt;b&gt;模型&lt;/b&gt;：iecpprodOrder, acquirePayOrder&lt;br&gt;&lt;b&gt;事件：&lt;/b&gt;用户在行业产品下单(BBCER00026829)&lt;br&gt;&lt;b&gt;场景&lt;/b&gt;：通用场景&lt;br&gt;&lt;u&gt;&lt;font color=&quot;#3333ff&quot;&gt;详情&lt;/font&gt;&lt;/u&gt;" style="rounded=0;whiteSpace=wrap;html=1;strokeColor=#000000;align=left;" vertex="1" parent="WIyWlLk6GJQsqaUBKTNV-1">
          <mxGeometry x="565" y="90" width="340" height="100" as="geometry" />
        </mxCell>
        <mxCell id="nb_gaPslLwNlG_SoKyud-88" style="edgeStyle=orthogonalEdgeStyle;rounded=0;orthogonalLoop=1;jettySize=auto;html=1;entryX=0;entryY=0.5;entryDx=0;entryDy=0;fontFamily=Helvetica;fontSize=12;fontColor=#000000;strokeColor=#0313FF;" edge="1" parent="WIyWlLk6GJQsqaUBKTNV-1" source="nb_gaPslLwNlG_SoKyud-12" target="nb_gaPslLwNlG_SoKyud-86">
          <mxGeometry relative="1" as="geometry" />
        </mxCell>
        <mxCell id="nb_gaPslLwNlG_SoKyud-12" value="&lt;b&gt;名称:&lt;/b&gt; iaqc_create&lt;br&gt;&lt;b&gt;策略要素&lt;/b&gt;：acquireBaseModel.productMode, acquireBaseModel.orderStatus&lt;br&gt;&lt;b&gt;模型&lt;/b&gt;：acquireBaseModel, acquirePayOrder, iecpprodOrder, acquireParticipant,arrangementModel&lt;br&gt;&lt;b&gt;事件&lt;/b&gt;：收单发卡站和行业核对模型(BBCER00017712),&lt;br&gt;&lt;b&gt;场景&lt;/b&gt;：directAuthPay,directPayInner&lt;br&gt;&lt;u&gt;&lt;font color=&quot;#3333ff&quot;&gt;详情&lt;/font&gt;&lt;/u&gt;" style="rounded=0;whiteSpace=wrap;html=1;strokeColor=#000000;align=left;" vertex="1" parent="WIyWlLk6GJQsqaUBKTNV-1">
          <mxGeometry x="570" y="285" width="330" height="120" as="geometry" />
        </mxCell>
        <mxCell id="nb_gaPslLwNlG_SoKyud-94" style="edgeStyle=orthogonalEdgeStyle;rounded=0;orthogonalLoop=1;jettySize=auto;html=1;fontFamily=Helvetica;fontSize=12;fontColor=#3333FF;strokeColor=#FF3333;" edge="1" parent="WIyWlLk6GJQsqaUBKTNV-1" source="nb_gaPslLwNlG_SoKyud-13">
          <mxGeometry relative="1" as="geometry">
            <mxPoint x="735" y="410" as="targetPoint" />
          </mxGeometry>
        </mxCell>
        <mxCell id="nb_gaPslLwNlG_SoKyud-13" value="&lt;b&gt;名称&lt;/b&gt;:iexpprod_ams_agreement_pay&lt;br&gt;&lt;b&gt;策略要素&lt;/b&gt;：messageRequestOpengwRequestModel.function&lt;br&gt;&lt;b&gt;模型&lt;/b&gt;：messageRequestOpngwRequestModel, gnTransactionOrderModel,acquireBaseModel&lt;br&gt;&lt;b&gt;事件&lt;/b&gt;：AMS代扣端到端核对事件&lt;br&gt;&lt;b&gt;场景&lt;/b&gt;：场景名称A，场景名称B，&lt;br&gt;&lt;u&gt;&lt;font color=&quot;#3333ff&quot;&gt;详情&lt;/font&gt;&lt;/u&gt;" style="rounded=0;whiteSpace=wrap;html=1;strokeColor=#000000;align=left;" vertex="1" parent="WIyWlLk6GJQsqaUBKTNV-1">
          <mxGeometry x="570" y="510" width="330" height="130" as="geometry" />
        </mxCell>
        <mxCell id="nb_gaPslLwNlG_SoKyud-18" value="业务链路" style="text;whiteSpace=wrap;html=1;" vertex="1" parent="WIyWlLk6GJQsqaUBKTNV-1">
          <mxGeometry x="320" y="280" width="52" height="25" as="geometry" />
        </mxCell>
        <mxCell id="nb_gaPslLwNlG_SoKyud-20" value="&lt;p style=&quot;font-size: 10px&quot;&gt;&lt;b&gt;joinRelation&lt;/b&gt;:&lt;span style=&quot;background-color: rgb(255 , 255 , 255) ; font-size: 10px&quot;&gt;&amp;nbsp;&lt;/span&gt;&lt;/p&gt;&lt;p style=&quot;font-size: 10px&quot;&gt;&lt;span style=&quot;background-color: rgb(255 , 255 , 255) ; font-size: 10px&quot;&gt;&lt;span style=&quot;font-size: 10px&quot;&gt;iecpprodOrder.iecppdOrderId=acquireBaseModel.merchantTransId&lt;/span&gt;&lt;/span&gt;&lt;/p&gt;" style="text;whiteSpace=wrap;html=1;" vertex="1" parent="WIyWlLk6GJQsqaUBKTNV-1">
          <mxGeometry x="740" y="200" width="430" height="40" as="geometry" />
        </mxCell>
        <mxCell id="nb_gaPslLwNlG_SoKyud-28" style="edgeStyle=orthogonalEdgeStyle;rounded=0;orthogonalLoop=1;jettySize=auto;html=1;exitX=1;exitY=0.5;exitDx=0;exitDy=0;entryX=0;entryY=0.5;entryDx=0;entryDy=0;fontSize=10;fontColor=#000000;strokeColor=#000000;" edge="1" parent="WIyWlLk6GJQsqaUBKTNV-1" target="nb_gaPslLwNlG_SoKyud-27">
          <mxGeometry relative="1" as="geometry">
            <mxPoint x="1475.5" y="815" as="sourcePoint" />
          </mxGeometry>
        </mxCell>
        <mxCell id="nb_gaPslLwNlG_SoKyud-29" style="edgeStyle=orthogonalEdgeStyle;rounded=0;orthogonalLoop=1;jettySize=auto;html=1;entryX=0;entryY=0.5;entryDx=0;entryDy=0;fontSize=10;fontColor=#000000;strokeColor=#000000;" edge="1" parent="WIyWlLk6GJQsqaUBKTNV-1" target="nb_gaPslLwNlG_SoKyud-26">
          <mxGeometry relative="1" as="geometry">
            <mxPoint x="1475.5" y="815.0999999999999" as="sourcePoint" />
          </mxGeometry>
        </mxCell>
        <mxCell id="nb_gaPslLwNlG_SoKyud-39" style="edgeStyle=orthogonalEdgeStyle;rounded=0;orthogonalLoop=1;jettySize=auto;html=1;entryX=0;entryY=0.5;entryDx=0;entryDy=0;fontFamily=Helvetica;fontSize=12;fontColor=#000000;strokeColor=#000000;" edge="1" parent="WIyWlLk6GJQsqaUBKTNV-1" source="nb_gaPslLwNlG_SoKyud-25" target="nb_gaPslLwNlG_SoKyud-33">
          <mxGeometry relative="1" as="geometry" />
        </mxCell>
        <mxCell id="nb_gaPslLwNlG_SoKyud-40" style="edgeStyle=orthogonalEdgeStyle;rounded=0;orthogonalLoop=1;jettySize=auto;html=1;fontFamily=Helvetica;fontSize=12;fontColor=#000000;strokeColor=#000000;" edge="1" parent="WIyWlLk6GJQsqaUBKTNV-1" source="nb_gaPslLwNlG_SoKyud-25" target="nb_gaPslLwNlG_SoKyud-34">
          <mxGeometry relative="1" as="geometry" />
        </mxCell>
        <mxCell id="nb_gaPslLwNlG_SoKyud-41" style="edgeStyle=orthogonalEdgeStyle;rounded=0;orthogonalLoop=1;jettySize=auto;html=1;fontFamily=Helvetica;fontSize=12;fontColor=#000000;strokeColor=#000000;" edge="1" parent="WIyWlLk6GJQsqaUBKTNV-1" source="nb_gaPslLwNlG_SoKyud-25" target="nb_gaPslLwNlG_SoKyud-35">
          <mxGeometry relative="1" as="geometry" />
        </mxCell>
        <mxCell id="nb_gaPslLwNlG_SoKyud-43" style="edgeStyle=orthogonalEdgeStyle;rounded=0;orthogonalLoop=1;jettySize=auto;html=1;entryX=0;entryY=0.5;entryDx=0;entryDy=0;fontFamily=Helvetica;fontSize=12;fontColor=#000000;strokeColor=#000000;" edge="1" parent="WIyWlLk6GJQsqaUBKTNV-1" source="nb_gaPslLwNlG_SoKyud-25" target="nb_gaPslLwNlG_SoKyud-36">
          <mxGeometry relative="1" as="geometry" />
        </mxCell>
        <mxCell id="nb_gaPslLwNlG_SoKyud-25" value="&lt;b&gt;场景名称&lt;/b&gt;:&amp;nbsp;&lt;span style=&quot;background-color: rgb(255 , 255 , 255)&quot;&gt;&lt;font style=&quot;font-size: 12px&quot;&gt;amsAgreementPayLossTransaction&lt;/font&gt;&lt;/span&gt;&lt;br&gt;&lt;b&gt;场景条件：&lt;/b&gt;k1==v1&amp;amp;&amp;amp;k2==v2" style="rounded=0;whiteSpace=wrap;html=1;strokeColor=#000000;align=left;" vertex="1" parent="WIyWlLk6GJQsqaUBKTNV-1">
          <mxGeometry x="650" y="930" width="330" height="70" as="geometry" />
        </mxCell>
        <mxCell id="nb_gaPslLwNlG_SoKyud-26" value="&lt;b&gt;name:&lt;/b&gt;&amp;nbsp;productCode&lt;br&gt;&lt;b&gt;fieldType&lt;/b&gt;: String&lt;br&gt;&lt;b&gt;assembler&lt;/b&gt;: &lt;span style=&quot;font-size: 9.8pt ; background-color: rgb(255 , 255 , 255)&quot;&gt;getFromJson(iexpprod.message_request_opengw_request.body, &quot;$.productCode&quot;&lt;/span&gt;&lt;span style=&quot;font-size: 9.8pt ; background-color: rgb(255 , 255 , 255)&quot;&gt;)&lt;/span&gt;" style="whiteSpace=wrap;html=1;rounded=0;align=left;" vertex="1" parent="WIyWlLk6GJQsqaUBKTNV-1">
          <mxGeometry x="1524.5" y="841" width="390" height="99" as="geometry" />
        </mxCell>
        <mxCell id="nb_gaPslLwNlG_SoKyud-27" value="&lt;b&gt;name:&lt;/b&gt; function&lt;br&gt;&lt;b&gt;fieldType&lt;/b&gt;: String&lt;br&gt;&lt;b&gt;assembler&lt;/b&gt;: iexpprod.message_request_opengw_request.traceId" style="whiteSpace=wrap;html=1;rounded=0;align=left;" vertex="1" parent="WIyWlLk6GJQsqaUBKTNV-1">
          <mxGeometry x="1524.5" y="680" width="390" height="80" as="geometry" />
        </mxCell>
        <mxCell id="nb_gaPslLwNlG_SoKyud-31" value="业务要素" style="text;whiteSpace=wrap;html=1;" vertex="1" parent="WIyWlLk6GJQsqaUBKTNV-1">
          <mxGeometry x="1674.5" y="640" width="56" height="30" as="geometry" />
        </mxCell>
        <mxCell id="nb_gaPslLwNlG_SoKyud-33" value="&lt;b&gt;约束名称&lt;/b&gt;:&lt;span style=&quot;background-color: rgb(255 , 255 , 255)&quot;&gt;AMS代扣掉单监控&lt;/span&gt;&lt;br&gt;&lt;b&gt;约束类型：&lt;/b&gt;正确性&lt;br&gt;&lt;b&gt;描述类型：&lt;/b&gt;代码描述" style="rounded=0;whiteSpace=wrap;html=1;strokeColor=#000000;align=left;" vertex="1" parent="WIyWlLk6GJQsqaUBKTNV-1">
          <mxGeometry x="1091" y="680" width="330" height="100" as="geometry" />
        </mxCell>
        <mxCell id="nb_gaPslLwNlG_SoKyud-34" value="&lt;b&gt;约束名称&lt;/b&gt;:&lt;span style=&quot;background-color: rgb(255 , 255 , 255)&quot;&gt;AMS代扣掉单监控&lt;/span&gt;&lt;br&gt;&lt;b&gt;约束类型：&lt;/b&gt;正确性&lt;br&gt;&lt;b&gt;描述类型：&lt;/b&gt;结构化描述" style="rounded=0;whiteSpace=wrap;html=1;strokeColor=#000000;align=left;" vertex="1" parent="WIyWlLk6GJQsqaUBKTNV-1">
          <mxGeometry x="1091" y="830" width="330" height="100" as="geometry" />
        </mxCell>
        <mxCell id="nb_gaPslLwNlG_SoKyud-35" value="&lt;b&gt;约束名称&lt;/b&gt;:&lt;span style=&quot;background-color: rgb(255 , 255 , 255)&quot;&gt;AMS代扣掉单监控&lt;/span&gt;&lt;br&gt;&lt;b&gt;约束类型：&lt;/b&gt;一致性&lt;br&gt;&lt;b&gt;描述类型：&lt;/b&gt;结构化描述" style="rounded=0;whiteSpace=wrap;html=1;strokeColor=#000000;align=left;" vertex="1" parent="WIyWlLk6GJQsqaUBKTNV-1">
          <mxGeometry x="1091" y="980" width="330" height="100" as="geometry" />
        </mxCell>
        <mxCell id="nb_gaPslLwNlG_SoKyud-36" value="&lt;b&gt;约束名称&lt;/b&gt;:&lt;span style=&quot;background-color: rgb(255 , 255 , 255)&quot;&gt;AMS代扣掉单监控&lt;/span&gt;&lt;br&gt;&lt;b&gt;约束类型：&lt;/b&gt;时效性&lt;br&gt;&lt;b&gt;描述类型：&lt;/b&gt;结构化描述" style="rounded=0;whiteSpace=wrap;html=1;strokeColor=#000000;align=left;" vertex="1" parent="WIyWlLk6GJQsqaUBKTNV-1">
          <mxGeometry x="1091" y="1140" width="330" height="100" as="geometry" />
        </mxCell>
        <mxCell id="nb_gaPslLwNlG_SoKyud-38" value="原子业务" style="text;whiteSpace=wrap;html=1;" vertex="1" parent="WIyWlLk6GJQsqaUBKTNV-1">
          <mxGeometry x="1177" y="50" width="56" height="30" as="geometry" />
        </mxCell>
        <mxCell id="nb_gaPslLwNlG_SoKyud-44" value="约束" style="text;whiteSpace=wrap;html=1;" vertex="1" parent="WIyWlLk6GJQsqaUBKTNV-1">
          <mxGeometry x="1177" y="650" width="90" height="30" as="geometry" />
        </mxCell>
        <mxCell id="nb_gaPslLwNlG_SoKyud-45" style="edgeStyle=orthogonalEdgeStyle;rounded=0;orthogonalLoop=1;jettySize=auto;html=1;entryX=0;entryY=0.5;entryDx=0;entryDy=0;" edge="1" parent="WIyWlLk6GJQsqaUBKTNV-1" source="nb_gaPslLwNlG_SoKyud-47" target="nb_gaPslLwNlG_SoKyud-49">
          <mxGeometry relative="1" as="geometry">
            <Array as="points">
              <mxPoint x="230" y="1760" />
            </Array>
          </mxGeometry>
        </mxCell>
        <mxCell id="nb_gaPslLwNlG_SoKyud-46" style="edgeStyle=orthogonalEdgeStyle;rounded=0;orthogonalLoop=1;jettySize=auto;html=1;entryX=0;entryY=0.5;entryDx=0;entryDy=0;" edge="1" parent="WIyWlLk6GJQsqaUBKTNV-1" source="nb_gaPslLwNlG_SoKyud-47" target="nb_gaPslLwNlG_SoKyud-51">
          <mxGeometry relative="1" as="geometry">
            <Array as="points">
              <mxPoint x="230" y="2030" />
            </Array>
          </mxGeometry>
        </mxCell>
        <mxCell id="nb_gaPslLwNlG_SoKyud-47" value="&lt;div style=&quot;text-align: left&quot;&gt;&lt;span&gt;acquire&lt;/span&gt;&lt;/div&gt;&lt;div style=&quot;text-align: left&quot;&gt;&lt;span&gt;名称：acquire&lt;/span&gt;&lt;/div&gt;&lt;div style=&quot;text-align: left&quot;&gt;&lt;span&gt;策略要素：&lt;/span&gt;&lt;/div&gt;&lt;div style=&quot;text-align: left&quot;&gt;&lt;span&gt;事件：&lt;/span&gt;&lt;/div&gt;" style="whiteSpace=wrap;html=1;aspect=fixed;" vertex="1" parent="WIyWlLk6GJQsqaUBKTNV-1">
          <mxGeometry x="190" y="1850" width="80" height="80" as="geometry" />
        </mxCell>
        <mxCell id="nb_gaPslLwNlG_SoKyud-48" style="edgeStyle=orthogonalEdgeStyle;rounded=0;orthogonalLoop=1;jettySize=auto;html=1;entryX=0;entryY=0.5;entryDx=0;entryDy=0;strokeColor=#0313FF;" edge="1" parent="WIyWlLk6GJQsqaUBKTNV-1" source="nb_gaPslLwNlG_SoKyud-49" target="nb_gaPslLwNlG_SoKyud-58">
          <mxGeometry relative="1" as="geometry" />
        </mxCell>
        <mxCell id="nb_gaPslLwNlG_SoKyud-49" value="名称：&lt;br&gt;表达式" style="whiteSpace=wrap;html=1;aspect=fixed;align=left;" vertex="1" parent="WIyWlLk6GJQsqaUBKTNV-1">
          <mxGeometry x="474" y="1720" width="80" height="80" as="geometry" />
        </mxCell>
        <mxCell id="nb_gaPslLwNlG_SoKyud-50" style="edgeStyle=orthogonalEdgeStyle;rounded=0;orthogonalLoop=1;jettySize=auto;html=1;entryX=0;entryY=0.5;entryDx=0;entryDy=0;strokeColor=#FF3333;" edge="1" parent="WIyWlLk6GJQsqaUBKTNV-1" source="nb_gaPslLwNlG_SoKyud-51" target="nb_gaPslLwNlG_SoKyud-60">
          <mxGeometry relative="1" as="geometry" />
        </mxCell>
        <mxCell id="nb_gaPslLwNlG_SoKyud-51" value="名称：链路名称2&lt;br&gt;表达式：k=v&amp;amp;&amp;amp;k2=v2" style="whiteSpace=wrap;html=1;aspect=fixed;align=left;" vertex="1" parent="WIyWlLk6GJQsqaUBKTNV-1">
          <mxGeometry x="474" y="1990" width="80" height="80" as="geometry" />
        </mxCell>
        <mxCell id="nb_gaPslLwNlG_SoKyud-52" value="mid=[“2159400000000010”]&#xa; &amp;&amp; tntInstId=“ALIPW3BR”" style="text;whiteSpace=wrap;html=1;" vertex="1" parent="WIyWlLk6GJQsqaUBKTNV-1">
          <mxGeometry x="250" y="1720" width="170" height="40" as="geometry" />
        </mxCell>
        <mxCell id="nb_gaPslLwNlG_SoKyud-53" value="业务链路" style="text;whiteSpace=wrap;html=1;" vertex="1" parent="WIyWlLk6GJQsqaUBKTNV-1">
          <mxGeometry x="486" y="1680" width="56" height="30" as="geometry" />
        </mxCell>
        <mxCell id="nb_gaPslLwNlG_SoKyud-54" value="function=[“alipay.ams.payments.pay”]&#xa; &amp;&amp;&#xa; productCode=“AGREEMENT_PAYMENT”" style="text;whiteSpace=wrap;html=1;" vertex="1" parent="WIyWlLk6GJQsqaUBKTNV-1">
          <mxGeometry x="224" y="2040" width="250" height="60" as="geometry" />
        </mxCell>
        <mxCell id="nb_gaPslLwNlG_SoKyud-55" value="原子业务" style="text;whiteSpace=wrap;html=1;" vertex="1" parent="WIyWlLk6GJQsqaUBKTNV-1">
          <mxGeometry x="740" y="1680" width="56" height="30" as="geometry" />
        </mxCell>
        <mxCell id="nb_gaPslLwNlG_SoKyud-56" style="edgeStyle=orthogonalEdgeStyle;rounded=0;orthogonalLoop=1;jettySize=auto;html=1;strokeColor=#0313FF;" edge="1" parent="WIyWlLk6GJQsqaUBKTNV-1" source="nb_gaPslLwNlG_SoKyud-58" target="nb_gaPslLwNlG_SoKyud-60">
          <mxGeometry relative="1" as="geometry" />
        </mxCell>
        <mxCell id="nb_gaPslLwNlG_SoKyud-57" style="edgeStyle=orthogonalEdgeStyle;rounded=0;orthogonalLoop=1;jettySize=auto;html=1;fontSize=10;fontColor=#000000;strokeColor=#0313FF;" edge="1" parent="WIyWlLk6GJQsqaUBKTNV-1" source="nb_gaPslLwNlG_SoKyud-58" target="nb_gaPslLwNlG_SoKyud-65">
          <mxGeometry relative="1" as="geometry" />
        </mxCell>
        <mxCell id="nb_gaPslLwNlG_SoKyud-58" value="&lt;span&gt;名称:iecpprod_createAndPay&lt;br&gt;&lt;/span&gt;策略要素：&lt;br&gt;模型：&lt;br&gt;事件：&lt;br&gt;场景：" style="rounded=0;whiteSpace=wrap;html=1;strokeColor=#000000;align=left;" vertex="1" parent="WIyWlLk6GJQsqaUBKTNV-1">
          <mxGeometry x="625" y="1710" width="340" height="100" as="geometry" />
        </mxCell>
        <mxCell id="nb_gaPslLwNlG_SoKyud-59" value="" style="edgeStyle=orthogonalEdgeStyle;rounded=0;orthogonalLoop=1;jettySize=auto;html=1;strokeColor=#FF3333;" edge="1" parent="WIyWlLk6GJQsqaUBKTNV-1" source="nb_gaPslLwNlG_SoKyud-60" target="nb_gaPslLwNlG_SoKyud-63">
          <mxGeometry relative="1" as="geometry" />
        </mxCell>
        <mxCell id="nb_gaPslLwNlG_SoKyud-60" value="&lt;span&gt;名称: iaqc_create&lt;br&gt;&lt;/span&gt;策略要素：&lt;br&gt;模型：&lt;br&gt;事件：事件名称&lt;br&gt;场景：" style="rounded=0;whiteSpace=wrap;html=1;strokeColor=#000000;align=left;" vertex="1" parent="WIyWlLk6GJQsqaUBKTNV-1">
          <mxGeometry x="630" y="1880" width="330" height="120" as="geometry" />
        </mxCell>
        <mxCell id="nb_gaPslLwNlG_SoKyud-61" value="" style="edgeStyle=orthogonalEdgeStyle;rounded=0;orthogonalLoop=1;jettySize=auto;html=1;fontSize=10;fontColor=#000000;strokeColor=#000000;" edge="1" parent="WIyWlLk6GJQsqaUBKTNV-1" source="nb_gaPslLwNlG_SoKyud-63" target="nb_gaPslLwNlG_SoKyud-69">
          <mxGeometry relative="1" as="geometry" />
        </mxCell>
        <mxCell id="nb_gaPslLwNlG_SoKyud-62" style="edgeStyle=orthogonalEdgeStyle;rounded=0;orthogonalLoop=1;jettySize=auto;html=1;fontFamily=Helvetica;fontSize=12;fontColor=#000000;strokeColor=#000000;" edge="1" parent="WIyWlLk6GJQsqaUBKTNV-1" source="nb_gaPslLwNlG_SoKyud-63" target="nb_gaPslLwNlG_SoKyud-74">
          <mxGeometry relative="1" as="geometry" />
        </mxCell>
        <mxCell id="nb_gaPslLwNlG_SoKyud-63" value="&lt;b&gt;名称&lt;/b&gt;:iexpprod_ams_agreement_pay&lt;br&gt;策略要素：messageRequestOpengwRequestModel.function&lt;br&gt;模型：messageRequestOpngwRequestModel, gnTransactionOrderModel,acquireBaseModel&lt;br&gt;事件：AMS代扣端到端核对事件&lt;br&gt;场景：场景名称A，场景名称B，" style="rounded=0;whiteSpace=wrap;html=1;strokeColor=#000000;align=left;" vertex="1" parent="WIyWlLk6GJQsqaUBKTNV-1">
          <mxGeometry x="630" y="2070" width="330" height="130" as="geometry" />
        </mxCell>
        <mxCell id="nb_gaPslLwNlG_SoKyud-64" value="业务链路" style="text;whiteSpace=wrap;html=1;" vertex="1" parent="WIyWlLk6GJQsqaUBKTNV-1">
          <mxGeometry x="486" y="1950" width="56" height="30" as="geometry" />
        </mxCell>
        <mxCell id="nb_gaPslLwNlG_SoKyud-65" value="&lt;span&gt;名称: FundControl_PAY_CARD&lt;br&gt;&lt;/span&gt;策略要素：&lt;br&gt;模型：&lt;br&gt;事件：&lt;br&gt;场景：" style="rounded=0;whiteSpace=wrap;html=1;strokeColor=#000000;align=left;" vertex="1" parent="WIyWlLk6GJQsqaUBKTNV-1">
          <mxGeometry x="1170" y="1710" width="190" height="100" as="geometry" />
        </mxCell>
        <mxCell id="nb_gaPslLwNlG_SoKyud-66" value="&lt;p style=&quot;font-size: 10px&quot;&gt;joinRelation:&lt;span style=&quot;background-color: rgb(255 , 255 , 255) ; font-size: 10px&quot;&gt;&amp;nbsp;&lt;span style=&quot;font-size: 10px&quot;&gt;iecpprodOrder.iecppdOrderId=acquireBaseModel.merchantTransId&lt;/span&gt;&lt;/span&gt;&lt;/p&gt;" style="text;whiteSpace=wrap;html=1;" vertex="1" parent="WIyWlLk6GJQsqaUBKTNV-1">
          <mxGeometry x="810" y="1810" width="170" height="40" as="geometry" />
        </mxCell>
        <mxCell id="nb_gaPslLwNlG_SoKyud-67" style="edgeStyle=orthogonalEdgeStyle;rounded=0;orthogonalLoop=1;jettySize=auto;html=1;exitX=1;exitY=0.5;exitDx=0;exitDy=0;entryX=0;entryY=0.5;entryDx=0;entryDy=0;fontSize=10;fontColor=#000000;strokeColor=#000000;" edge="1" parent="WIyWlLk6GJQsqaUBKTNV-1" source="nb_gaPslLwNlG_SoKyud-69" target="nb_gaPslLwNlG_SoKyud-76">
          <mxGeometry relative="1" as="geometry" />
        </mxCell>
        <mxCell id="nb_gaPslLwNlG_SoKyud-68" style="edgeStyle=orthogonalEdgeStyle;rounded=0;orthogonalLoop=1;jettySize=auto;html=1;entryX=0;entryY=0.5;entryDx=0;entryDy=0;fontSize=10;fontColor=#000000;strokeColor=#000000;" edge="1" parent="WIyWlLk6GJQsqaUBKTNV-1" source="nb_gaPslLwNlG_SoKyud-69" target="nb_gaPslLwNlG_SoKyud-75">
          <mxGeometry relative="1" as="geometry" />
        </mxCell>
        <mxCell id="nb_gaPslLwNlG_SoKyud-69" value="&lt;b&gt;alias:&lt;/b&gt; messageRequestOpngwRequestModel&lt;br&gt;&lt;b&gt;name&lt;/b&gt;: iexpprod.message_request_opengw_request" style="whiteSpace=wrap;html=1;rounded=0;align=left;" vertex="1" parent="WIyWlLk6GJQsqaUBKTNV-1">
          <mxGeometry x="1151" y="2091.25" width="300" height="87.5" as="geometry" />
        </mxCell>
        <mxCell id="nb_gaPslLwNlG_SoKyud-70" style="edgeStyle=orthogonalEdgeStyle;rounded=0;orthogonalLoop=1;jettySize=auto;html=1;entryX=0;entryY=0.5;entryDx=0;entryDy=0;fontFamily=Helvetica;fontSize=12;fontColor=#000000;strokeColor=#000000;" edge="1" parent="WIyWlLk6GJQsqaUBKTNV-1" source="nb_gaPslLwNlG_SoKyud-74" target="nb_gaPslLwNlG_SoKyud-79">
          <mxGeometry relative="1" as="geometry" />
        </mxCell>
        <mxCell id="nb_gaPslLwNlG_SoKyud-71" style="edgeStyle=orthogonalEdgeStyle;rounded=0;orthogonalLoop=1;jettySize=auto;html=1;fontFamily=Helvetica;fontSize=12;fontColor=#000000;strokeColor=#000000;" edge="1" parent="WIyWlLk6GJQsqaUBKTNV-1" source="nb_gaPslLwNlG_SoKyud-74" target="nb_gaPslLwNlG_SoKyud-80">
          <mxGeometry relative="1" as="geometry" />
        </mxCell>
        <mxCell id="nb_gaPslLwNlG_SoKyud-72" style="edgeStyle=orthogonalEdgeStyle;rounded=0;orthogonalLoop=1;jettySize=auto;html=1;fontFamily=Helvetica;fontSize=12;fontColor=#000000;strokeColor=#000000;" edge="1" parent="WIyWlLk6GJQsqaUBKTNV-1" source="nb_gaPslLwNlG_SoKyud-74" target="nb_gaPslLwNlG_SoKyud-81">
          <mxGeometry relative="1" as="geometry" />
        </mxCell>
        <mxCell id="nb_gaPslLwNlG_SoKyud-73" style="edgeStyle=orthogonalEdgeStyle;rounded=0;orthogonalLoop=1;jettySize=auto;html=1;entryX=0;entryY=0.5;entryDx=0;entryDy=0;fontFamily=Helvetica;fontSize=12;fontColor=#000000;strokeColor=#000000;" edge="1" parent="WIyWlLk6GJQsqaUBKTNV-1" source="nb_gaPslLwNlG_SoKyud-74" target="nb_gaPslLwNlG_SoKyud-82">
          <mxGeometry relative="1" as="geometry" />
        </mxCell>
        <mxCell id="nb_gaPslLwNlG_SoKyud-74" value="&lt;b&gt;场景名称&lt;/b&gt;:&amp;nbsp;&lt;span style=&quot;background-color: rgb(255 , 255 , 255)&quot;&gt;&lt;font style=&quot;font-size: 12px&quot;&gt;amsAgreementPayLossTransaction&lt;/font&gt;&lt;/span&gt;&lt;br&gt;&lt;b&gt;场景条件：&lt;/b&gt;k1==v1&amp;amp;&amp;amp;k2==v2" style="rounded=0;whiteSpace=wrap;html=1;strokeColor=#000000;align=left;" vertex="1" parent="WIyWlLk6GJQsqaUBKTNV-1">
          <mxGeometry x="710" y="2550" width="330" height="70" as="geometry" />
        </mxCell>
        <mxCell id="nb_gaPslLwNlG_SoKyud-75" value="&lt;b&gt;name:&lt;/b&gt;&amp;nbsp;productCode&lt;br&gt;&lt;b&gt;fieldType&lt;/b&gt;: String&lt;br&gt;&lt;b&gt;assembler&lt;/b&gt;: &lt;span style=&quot;font-size: 9.8pt ; background-color: rgb(255 , 255 , 255)&quot;&gt;getFromJson(iexpprod.message_request_opengw_request.body, &quot;$.productCode&quot;&lt;/span&gt;&lt;span style=&quot;font-size: 9.8pt ; background-color: rgb(255 , 255 , 255)&quot;&gt;)&lt;/span&gt;" style="whiteSpace=wrap;html=1;rounded=0;align=left;" vertex="1" parent="WIyWlLk6GJQsqaUBKTNV-1">
          <mxGeometry x="1500" y="2161" width="390" height="99" as="geometry" />
        </mxCell>
        <mxCell id="nb_gaPslLwNlG_SoKyud-76" value="&lt;b&gt;name:&lt;/b&gt; function&lt;br&gt;&lt;b&gt;fieldType&lt;/b&gt;: String&lt;br&gt;&lt;b&gt;assembler&lt;/b&gt;: iexpprod.message_request_opengw_request.traceId" style="whiteSpace=wrap;html=1;rounded=0;align=left;" vertex="1" parent="WIyWlLk6GJQsqaUBKTNV-1">
          <mxGeometry x="1500" y="2000" width="390" height="80" as="geometry" />
        </mxCell>
        <mxCell id="nb_gaPslLwNlG_SoKyud-77" value="模型: 模型名称" style="text;whiteSpace=wrap;html=1;" vertex="1" parent="WIyWlLk6GJQsqaUBKTNV-1">
          <mxGeometry x="1260" y="2055" width="90" height="30" as="geometry" />
        </mxCell>
        <mxCell id="nb_gaPslLwNlG_SoKyud-78" value="业务要素" style="text;whiteSpace=wrap;html=1;" vertex="1" parent="WIyWlLk6GJQsqaUBKTNV-1">
          <mxGeometry x="1650" y="1960" width="56" height="30" as="geometry" />
        </mxCell>
        <mxCell id="nb_gaPslLwNlG_SoKyud-79" value="&lt;b&gt;约束名称&lt;/b&gt;:&lt;span style=&quot;background-color: rgb(255 , 255 , 255)&quot;&gt;AMS代扣掉单监控&lt;/span&gt;&lt;br&gt;&lt;b&gt;约束类型：&lt;/b&gt;正确性&lt;br&gt;&lt;b&gt;描述类型：&lt;/b&gt;代码描述" style="rounded=0;whiteSpace=wrap;html=1;strokeColor=#000000;align=left;" vertex="1" parent="WIyWlLk6GJQsqaUBKTNV-1">
          <mxGeometry x="1151" y="2300" width="330" height="100" as="geometry" />
        </mxCell>
        <mxCell id="nb_gaPslLwNlG_SoKyud-80" value="&lt;b&gt;约束名称&lt;/b&gt;:&lt;span style=&quot;background-color: rgb(255 , 255 , 255)&quot;&gt;AMS代扣掉单监控&lt;/span&gt;&lt;br&gt;&lt;b&gt;约束类型：&lt;/b&gt;正确性&lt;br&gt;&lt;b&gt;描述类型：&lt;/b&gt;结构化描述" style="rounded=0;whiteSpace=wrap;html=1;strokeColor=#000000;align=left;" vertex="1" parent="WIyWlLk6GJQsqaUBKTNV-1">
          <mxGeometry x="1151" y="2450" width="330" height="100" as="geometry" />
        </mxCell>
        <mxCell id="nb_gaPslLwNlG_SoKyud-81" value="&lt;b&gt;约束名称&lt;/b&gt;:&lt;span style=&quot;background-color: rgb(255 , 255 , 255)&quot;&gt;AMS代扣掉单监控&lt;/span&gt;&lt;br&gt;&lt;b&gt;约束类型：&lt;/b&gt;一致性&lt;br&gt;&lt;b&gt;描述类型：&lt;/b&gt;结构化描述" style="rounded=0;whiteSpace=wrap;html=1;strokeColor=#000000;align=left;" vertex="1" parent="WIyWlLk6GJQsqaUBKTNV-1">
          <mxGeometry x="1151" y="2600" width="330" height="100" as="geometry" />
        </mxCell>
        <mxCell id="nb_gaPslLwNlG_SoKyud-82" value="&lt;b&gt;约束名称&lt;/b&gt;:&lt;span style=&quot;background-color: rgb(255 , 255 , 255)&quot;&gt;AMS代扣掉单监控&lt;/span&gt;&lt;br&gt;&lt;b&gt;约束类型：&lt;/b&gt;时效性&lt;br&gt;&lt;b&gt;描述类型：&lt;/b&gt;结构化描述" style="rounded=0;whiteSpace=wrap;html=1;strokeColor=#000000;align=left;" vertex="1" parent="WIyWlLk6GJQsqaUBKTNV-1">
          <mxGeometry x="1151" y="2760" width="330" height="100" as="geometry" />
        </mxCell>
        <mxCell id="nb_gaPslLwNlG_SoKyud-83" value="&lt;div style=&quot;box-sizing: border-box ; outline: none ; background-color: rgb(255 , 255 , 255)&quot;&gt;&lt;font style=&quot;font-size: 12px&quot;&gt;messageRequestOpengwRequestModel.function&lt;/font&gt;&lt;/div&gt;&lt;div style=&quot;box-sizing: border-box ; outline: none ; background-color: rgb(255 , 255 , 255)&quot;&gt;&lt;font style=&quot;font-size: 12px&quot;&gt;==&lt;/font&gt;&lt;/div&gt;&lt;div style=&quot;box-sizing: border-box ; outline: none ; background-color: rgb(255 , 255 , 255)&quot;&gt;&lt;font style=&quot;font-size: 12px&quot;&gt;alipay.ams.payments.pay&lt;/font&gt;&lt;/div&gt;&lt;div style=&quot;box-sizing: border-box ; outline: none ; background-color: rgb(255 , 255 , 255)&quot;&gt;&lt;font style=&quot;font-size: 12px&quot;&gt;&amp;amp;&amp;amp;&lt;/font&gt;&lt;/div&gt;&lt;div style=&quot;box-sizing: border-box ; outline: none ; background-color: rgb(255 , 255 , 255)&quot;&gt;&lt;font style=&quot;font-size: 12px&quot;&gt;&lt;div style=&quot;box-sizing: border-box ; outline: none&quot;&gt;messageRequestOpengwRequestModel.productCode&lt;/div&gt;&lt;div style=&quot;box-sizing: border-box ; outline: none&quot;&gt;==&lt;/div&gt;&lt;div style=&quot;box-sizing: border-box ; outline: none&quot;&gt;AGREEMENT_PAYMENT&lt;/div&gt;&lt;/font&gt;&lt;/div&gt;" style="text;html=1;align=center;verticalAlign=middle;resizable=0;points=[];autosize=1;strokeColor=none;fillColor=none;fontSize=12;fontFamily=Helvetica;fontColor=#000000;" vertex="1" parent="WIyWlLk6GJQsqaUBKTNV-1">
          <mxGeometry x="810" y="2240" width="300" height="100" as="geometry" />
        </mxCell>
        <mxCell id="nb_gaPslLwNlG_SoKyud-84" value="原子业务" style="text;whiteSpace=wrap;html=1;" vertex="1" parent="WIyWlLk6GJQsqaUBKTNV-1">
          <mxGeometry x="1237" y="1670" width="56" height="30" as="geometry" />
        </mxCell>
        <mxCell id="nb_gaPslLwNlG_SoKyud-85" value="约束" style="text;whiteSpace=wrap;html=1;" vertex="1" parent="WIyWlLk6GJQsqaUBKTNV-1">
          <mxGeometry x="1237" y="2270" width="90" height="30" as="geometry" />
        </mxCell>
        <mxCell id="nb_gaPslLwNlG_SoKyud-86" value="&lt;b&gt;名称&lt;/b&gt;: iaqc_pay&lt;br&gt;&lt;b&gt;策略要素&lt;/b&gt;：messageRequestOpengwRequestModel.function&lt;br&gt;&lt;b&gt;模型&lt;/b&gt;：messageRequestOpngwRequestModel, gnTransactionOrderModel,acquireBaseModel&lt;br&gt;&lt;b&gt;事件&lt;/b&gt;：AMS代扣端到端核对事件&lt;br&gt;&lt;b&gt;场景&lt;/b&gt;：场景名称A，场景名称B，&lt;br&gt;&lt;u&gt;&lt;font color=&quot;#3333ff&quot;&gt;详情&lt;/font&gt;&lt;/u&gt;" style="rounded=0;whiteSpace=wrap;html=1;strokeColor=#000000;align=left;" vertex="1" parent="WIyWlLk6GJQsqaUBKTNV-1">
          <mxGeometry x="1110" y="280" width="330" height="130" as="geometry" />
        </mxCell>
        <mxCell id="nb_gaPslLwNlG_SoKyud-87" value="&lt;b&gt;名称&lt;/b&gt;: ipayment_iafc_auth&lt;br&gt;&lt;b&gt;策略要素&lt;/b&gt;：messageRequestOpengwRequestModel.function&lt;br&gt;&lt;b&gt;模型&lt;/b&gt;：messageRequestOpngwRequestModel, gnTransactionOrderModel,acquireBaseModel&lt;br&gt;&lt;b&gt;事件&lt;/b&gt;：AMS代扣端到端核对事件&lt;br&gt;&lt;b&gt;场景&lt;/b&gt;：场景名称A，场景名称B，" style="rounded=0;whiteSpace=wrap;html=1;strokeColor=#000000;align=left;" vertex="1" parent="WIyWlLk6GJQsqaUBKTNV-1">
          <mxGeometry x="1610" y="255" width="330" height="130" as="geometry" />
        </mxCell>
        <mxCell id="nb_gaPslLwNlG_SoKyud-89" value="&lt;b&gt;名称&lt;/b&gt;: iaqc_pay&lt;br&gt;&lt;b&gt;策略要素&lt;/b&gt;：acquirePayOrder.payType, acquirePayOrder.payStatus, acquireBaseModel.hasRefund&lt;br&gt;&lt;b&gt;模型&lt;/b&gt;：acquireBaseModel, acquirePayOrder,afacAuthOrder&lt;br&gt;&lt;b&gt;事件&lt;/b&gt;：收单发卡站和支付核对模型(BBCER00017684)&lt;br&gt;&lt;b&gt;场景&lt;/b&gt;：directAuthPay&lt;br&gt;&lt;u&gt;&lt;font color=&quot;#3333ff&quot;&gt;详情&lt;/font&gt;&lt;/u&gt;" style="rounded=0;whiteSpace=wrap;html=1;strokeColor=#000000;align=left;" vertex="1" parent="WIyWlLk6GJQsqaUBKTNV-1">
          <mxGeometry x="1110" y="75" width="330" height="130" as="geometry" />
        </mxCell>
        <mxCell id="nb_gaPslLwNlG_SoKyud-91" value="&lt;p style=&quot;font-size: 10px&quot;&gt;&lt;b&gt;joinRelation&lt;/b&gt;:&lt;/p&gt;&lt;p style=&quot;font-size: 10px&quot;&gt;&lt;span style=&quot;background-color: rgb(255 , 255 , 255) ; font-size: 10px&quot;&gt;&amp;nbsp;acquireBasseModel.acquirementId &lt;span style=&quot;font-size: 10px&quot;&gt;=acquirePayOrder.acquirementId&lt;/span&gt;&lt;/span&gt;&lt;/p&gt;" style="text;whiteSpace=wrap;html=1;" vertex="1" parent="WIyWlLk6GJQsqaUBKTNV-1">
          <mxGeometry x="905" y="350" width="200" height="80" as="geometry" />
        </mxCell>
        <mxCell id="nb_gaPslLwNlG_SoKyud-93" value="&lt;p style=&quot;font-size: 10px&quot;&gt;&lt;b&gt;joinRelation&lt;/b&gt;:&lt;span style=&quot;background-color: rgb(255 , 255 , 255) ; font-size: 10px&quot;&gt;&amp;nbsp;&lt;/span&gt;&lt;/p&gt;&lt;p style=&quot;font-size: 10px&quot;&gt;&lt;span style=&quot;background-color: rgb(255 , 255 , 255) ; font-size: 10px&quot;&gt;&lt;span style=&quot;font-size: 10px&quot;&gt;imessageRequestOpengwRequestModel,paymentRequestId = acquireBaseModel.merchantTransId&lt;/span&gt;&lt;/span&gt;&lt;/p&gt;" style="text;whiteSpace=wrap;html=1;" vertex="1" parent="WIyWlLk6GJQsqaUBKTNV-1">
          <mxGeometry x="745" y="430" width="430" height="60" as="geometry" />
        </mxCell>
        <mxCell id="nb_gaPslLwNlG_SoKyud-96" value="&lt;b&gt;名称:&lt;/b&gt;&amp;nbsp;AMS_AGREEMENT_PAY_CHAIN&lt;br&gt;&lt;u&gt;&lt;font color=&quot;#3333ff&quot;&gt;详情&lt;/font&gt;&lt;/u&gt;" style="rounded=0;whiteSpace=wrap;html=1;strokeColor=#000000;align=left;" vertex="1" parent="WIyWlLk6GJQsqaUBKTNV-1">
          <mxGeometry x="230" y="312.5" width="228" height="65" as="geometry" />
        </mxCell>
        <mxCell id="nb_gaPslLwNlG_SoKyud-102" value="&lt;b&gt;名称:&lt;/b&gt;&amp;nbsp;业务链路名称&lt;br&gt;&lt;u&gt;&lt;font color=&quot;#3333ff&quot;&gt;详情&lt;/font&gt;&lt;/u&gt;" style="rounded=0;whiteSpace=wrap;html=1;strokeColor=#000000;align=left;" vertex="1" parent="WIyWlLk6GJQsqaUBKTNV-1">
          <mxGeometry x="224" y="107.5" width="228" height="65" as="geometry" />
        </mxCell>
        <mxCell id="nb_gaPslLwNlG_SoKyud-104" style="edgeStyle=orthogonalEdgeStyle;rounded=0;orthogonalLoop=1;jettySize=auto;html=1;fontFamily=Helvetica;fontSize=12;fontColor=#3333FF;strokeColor=#000000;exitX=0.5;exitY=0;exitDx=0;exitDy=0;" edge="1" parent="WIyWlLk6GJQsqaUBKTNV-1" source="nb_gaPslLwNlG_SoKyud-103">
          <mxGeometry relative="1" as="geometry">
            <mxPoint x="12" y="250" as="sourcePoint" />
            <mxPoint x="226" y="140" as="targetPoint" />
            <Array as="points">
              <mxPoint x="-160" y="250" />
              <mxPoint x="50" y="250" />
              <mxPoint x="50" y="140" />
            </Array>
          </mxGeometry>
        </mxCell>
        <mxCell id="nb_gaPslLwNlG_SoKyud-105" style="edgeStyle=orthogonalEdgeStyle;rounded=0;orthogonalLoop=1;jettySize=auto;html=1;entryX=0;entryY=0.5;entryDx=0;entryDy=0;fontFamily=Helvetica;fontSize=12;fontColor=#3333FF;strokeColor=#000000;" edge="1" parent="WIyWlLk6GJQsqaUBKTNV-1" source="nb_gaPslLwNlG_SoKyud-103" target="nb_gaPslLwNlG_SoKyud-96">
          <mxGeometry relative="1" as="geometry">
            <Array as="points">
              <mxPoint x="50" y="250" />
              <mxPoint x="50" y="345" />
            </Array>
          </mxGeometry>
        </mxCell>
        <mxCell id="nb_gaPslLwNlG_SoKyud-103" value="&lt;b&gt;名称:&lt;/b&gt; acquire&lt;br&gt;&lt;b&gt;策略要素：&lt;/b&gt;mid, tntInstId, siteMode,……&lt;br&gt;&lt;b&gt;模型&lt;/b&gt;：iecpprodOrder, acquirePayOrder&lt;br&gt;&lt;b&gt;事件：&lt;/b&gt;用户在行业产品下单(BBCER00026829)&lt;br&gt;&lt;b&gt;场景&lt;/b&gt;：通用场景&lt;br&gt;&lt;u&gt;&lt;font color=&quot;#3333ff&quot;&gt;详情&lt;/font&gt;&lt;/u&gt;" style="rounded=0;whiteSpace=wrap;html=1;strokeColor=#000000;align=left;" vertex="1" parent="WIyWlLk6GJQsqaUBKTNV-1">
          <mxGeometry x="-330" y="200" width="340" height="100" as="geometry" />
        </mxCell>
      </root>
    </mxGraphModel>
  </diagram>
</mxfile>
